HIERARCHY
ROOT joint_Root
{
	OFFSET 0.0 0.0 0.0
	CHANNELS 6 Xposition Yposition Zposition Zrotation Xrotation Yrotation 
	JOINT Hips
	{
		OFFSET -0.726466 93.3139 -2.00062
		CHANNELS 6 Xposition Yposition Zposition Zrotation Xrotation Yrotation 
		JOINT Spine
		{
			OFFSET 15.7357 0.0 0.0
			CHANNELS 6 Xposition Yposition Zposition Zrotation Xrotation Yrotation 
			JOINT Chest
			{
				OFFSET 8.98455 -0.406207 0.0
				CHANNELS 6 Xposition Yposition Zposition Zrotation Xrotation Yrotation 
				JOINT Neck
				{
					OFFSET 16.3773 0.0 0.0
					CHANNELS 6 Xposition Yposition Zposition Zrotation Xrotation Yrotation 
					JOINT Head
					{
						OFFSET 6.45672 0.0 0.0
						CHANNELS 6 Xposition Yposition Zposition Zrotation Xrotation Yrotation 
						End Site
						{
							OFFSET 0.0 0.0 0.0
						}
					}
				}
				JOINT Shoulder_L
				{
					OFFSET 12.9942 -0.242716 4.98039
					CHANNELS 6 Xposition Yposition Zposition Zrotation Xrotation Yrotation 
					JOINT UpperArm_L
					{
						OFFSET 5.34809 0.0 0.0
						CHANNELS 6 Xposition Yposition Zposition Zrotation Xrotation Yrotation 
						JOINT LowerArm_L
						{
							OFFSET 24.3286 1.87007e-05 0.0
							CHANNELS 6 Xposition Yposition Zposition Zrotation Xrotation Yrotation 
							JOINT Hand_L
							{
								OFFSET 22.2916 0.0 0.0
								CHANNELS 6 Xposition Yposition Zposition Zrotation Xrotation Yrotation 
								End Site
								{
									OFFSET 0.0 0.0 0.0
								}
							}
						}
					}
				}
				JOINT Shoulder_R
				{
					OFFSET 12.9945 -0.242716 -4.98039
					CHANNELS 6 Xposition Yposition Zposition Zrotation Xrotation Yrotation 
					JOINT UpperArm_R
					{
						OFFSET -5.34813 0.0 0.0
						CHANNELS 6 Xposition Yposition Zposition Zrotation Xrotation Yrotation 
						JOINT LowerArm_R
						{
							OFFSET -24.3289 0.000322201 0.0
							CHANNELS 6 Xposition Yposition Zposition Zrotation Xrotation Yrotation 
							JOINT Hand_R
							{
								OFFSET -22.2915 -0.000108084 0.0
								CHANNELS 6 Xposition Yposition Zposition Zrotation Xrotation Yrotation 
								End Site
								{
									OFFSET 0.0 0.0 0.0
								}
							}
						}
					}
				}
			}
		}
		JOINT UpperLeg_L
		{
			OFFSET -2.19248 -6.46944 0.0
			CHANNELS 6 Xposition Yposition Zposition Zrotation Xrotation Yrotation 
			JOINT LowerLeg_L
			{
				OFFSET 39.0811 0.0 -1.23785e-05
				CHANNELS 6 Xposition Yposition Zposition Zrotation Xrotation Yrotation 
				JOINT Foot_L
				{
					OFFSET 40.9854 0.0 -1.26872e-05
					CHANNELS 6 Xposition Yposition Zposition Zrotation Xrotation Yrotation 
					JOINT Toes_L
					{
						OFFSET 11.7543 0.0 0.0
						CHANNELS 6 Xposition Yposition Zposition Zrotation Xrotation Yrotation 
						End Site
						{
							OFFSET 0.0 0.0 0.0
						}
					}
				}
			}
		}
		JOINT UpperLeg_R
		{
			OFFSET -2.19251 6.46944 0.0
			CHANNELS 6 Xposition Yposition Zposition Zrotation Xrotation Yrotation 
			JOINT LowerLeg_R
			{
				OFFSET -39.0811 -0.00228153 -0.0401928
				CHANNELS 6 Xposition Yposition Zposition Zrotation Xrotation Yrotation 
				JOINT Foot_R
				{
					OFFSET -40.9854 0.0 0.0
					CHANNELS 6 Xposition Yposition Zposition Zrotation Xrotation Yrotation 
					JOINT Toes_R
					{
						OFFSET -11.7543 0.0 0.0
						CHANNELS 6 Xposition Yposition Zposition Zrotation Xrotation Yrotation 
						End Site
						{
							OFFSET 0.0 0.0 0.0
						}
					}
				}
			}
		}
	}
}
MOTION
Frames:	4
Frame Time:	0.0333333
0.000000 0.000000 0.000000 0.000000 0.000000 -0.000000 -0.827108 92.281500 -0.215616 87.994200 -0.738795 3.365580 15.735700 0.000005 -0.000001 89.744900 85.177300 -89.506500 8.984550 -0.406207 -0.000000 1.879400 -0.055165 0.477185 16.377300 -0.000001 -0.000001 3.987950 -2.866170 1.014760 6.456720 -0.000001 -0.000000 2.437190 -2.301160 -0.469395 12.994200 -0.242716 4.980390 -89.872400 -0.421599 -73.159400 5.348090 -0.000007 -0.000001 -66.700600 41.306600 -15.781200 24.328600 0.000019 0.000005 0.699611 1.677980 -22.635600 22.291600 -0.000001 0.000005 3.167870 5.459610 -4.986600 12.994500 -0.242716 -4.980390 87.726200 7.067700 -72.115000 -5.348130 -0.000001 -0.000004 -66.045400 34.819200 -15.876300 -24.328900 0.000322 -0.000009 3.299640 9.679350 -18.931600 -22.291500 -0.000108 -0.000004 9.717950 5.333200 -0.879515 -2.192480 -6.469440 -0.000000 -175.451000 -6.033960 -2.948990 39.081100 -0.000007 -0.000012 -0.111038 0.264499 22.772900 40.985400 -0.000006 -0.000013 -0.403029 3.088780 -66.660800 11.754300 -0.000000 0.000003 -0.000034 -0.000399 -16.593100 -2.192510 6.469440 -0.000001 179.731000 13.826200 179.379000 -39.081100 -0.002282 -0.040193 -0.047174 0.143192 19.425000 -40.985400 0.000008 0.000006 3.137800 8.027290 -65.896700 -11.754300 -0.000006 -0.000006 -0.007230 -0.081628 -19.896300
0.000000 0.000000 0.000000 0.000000 0.000000 -0.000000 -0.831241 92.293000 -0.229098 87.978200 -0.701765 3.338300 15.735700 0.000005 -0.000001 89.692400 85.172000 -89.492600 8.984550 -0.406207 -0.000000 1.889910 -0.062049 0.400197 16.377300 -0.000001 -0.000001 3.906430 -2.815210 0.899482 6.456720 -0.000001 -0.000000 2.433780 -2.301120 -0.485996 12.994200 -0.242716 4.980390 -89.856000 -0.472821 -73.059100 5.348090 -0.000007 -0.000001 -66.797900 41.279800 -15.698200 24.328600 0.000019 0.000005 0.650503 1.563190 -22.596100 22.291600 -0.000001 0.000005 3.213190 5.458070 -4.930420 12.994500 -0.242716 -4.980390 87.697800 7.101780 -71.986500 -5.348130 -0.000001 -0.000004 -65.546400 34.190200 -15.726800 -24.328900 0.000322 -0.000009 3.895630 9.869520 -21.672600 -22.291500 -0.000108 -0.000004 10.085200 5.337390 -1.001680 -2.192480 -6.469440 -0.000000 -175.444000 -5.974190 -2.969720 39.081100 -0.000007 -0.000012 -0.110706 0.264414 22.718400 40.985400 -0.000006 -0.000013 -0.415954 3.047730 -66.615700 11.754300 -0.000000 0.000003 -0.000032 -0.000386 -16.592600 -2.192510 6.469440 -0.000001 179.781000 13.794100 179.377000 -39.081100 -0.002282 -0.040193 -0.042942 0.131701 19.355400 -40.985400 0.000008 0.000006 3.271060 7.959690 -65.878200 -11.754300 -0.000006 -0.000006 -0.007217 -0.081515 -19.891700
0.000000 0.000000 0.000000 0.000000 0.000000 -0.000000 -0.825457 92.289500 -0.250824 87.971000 -0.726486 3.285470 15.735700 0.000005 -0.000001 89.587700 85.171400 -89.419400 8.984550 -0.406207 -0.000000 1.891070 -0.078076 0.337542 16.377300 -0.000001 -0.000001 3.867810 -2.789900 0.774649 6.456720 -0.000001 -0.000000 2.326420 -2.303060 -0.677489 12.994200 -0.242716 4.980390 -89.849100 -0.492090 -72.954400 5.348090 -0.000007 -0.000001 -66.962800 41.030300 -15.506800 24.328600 0.000019 0.000005 0.680862 1.636980 -22.586100 22.291600 -0.000001 0.000005 3.161790 5.459010 -4.964900 12.994500 -0.242716 -4.980390 87.629800 7.191080 -71.703500 -5.348130 -0.000001 -0.000004 -64.371800 32.953200 -16.015800 -24.328900 0.000322 -0.000009 4.522170 9.389350 -25.866800 -22.291500 -0.000108 -0.000004 11.033600 5.337000 -0.991837 -2.192480 -6.469440 -0.000000 -175.438000 -6.003440 -3.068250 39.081100 -0.000007 -0.000012 -0.112631 0.268347 22.769000 40.985400 -0.000006 -0.000013 -0.413106 3.061320 -66.618900 11.754300 -0.000000 0.000003 -0.000029 -0.000352 -16.591300 -2.192510 6.469440 -0.000001 179.803000 13.720200 179.281000 -39.081100 -0.002282 -0.040193 -0.045878 0.139888 19.377600 -40.985400 0.000008 0.000006 3.124020 7.896720 -65.834300 -11.754300 -0.000006 -0.000006 -0.007217 -0.081519 -19.891900
0.000000 0.000000 0.000000 0.000000 0.000000 -0.000000 -0.788757 92.303900 -0.276761 87.991700 -0.759277 3.248960 15.735700 0.000005 -0.000001 89.285100 85.181200 -89.133700 8.984550 -0.406207 -0.000000 1.871020 -0.127953 0.304682 16.377300 -0.000001 -0.000001 3.911000 -2.867140 0.625823 6.456720 -0.000001 -0.000000 2.158710 -2.403660 -1.136150 12.994200 -0.242716 4.980390 -89.860000 -0.453987 -72.864900 5.348090 -0.000007 -0.000001 -67.048000 40.924600 -15.297300 24.328600 0.000019 0.000005 0.682383 1.643620 -22.549100 22.291600 -0.000001 0.000005 3.144510 5.459860 -4.995920 12.994500 -0.242716 -4.980390 87.578800 7.163950 -71.270900 -5.348130 -0.000001 -0.000004 -62.687800 30.995500 -16.963700 -24.328900 0.000322 -0.000009 5.648960 9.420140 -31.144900 -22.291500 -0.000108 -0.000004 13.114500 5.330730 -0.807329 -2.192480 -6.469440 -0.000000 -175.482000 -6.116110 -3.059680 39.081100 -0.000007 -0.000012 -0.110057 0.263538 22.666000 40.985400 -0.000006 -0.000013 -0.372054 3.126140 -66.560100 11.754300 -0.000000 0.000003 -0.000031 -0.000372 -16.592100 -2.192510 6.469440 -0.000001 179.803000 13.621800 179.240000 -39.081100 -0.002282 -0.040193 -0.042476 0.130540 19.332900 -40.985400 0.000008 0.000006 3.219610 7.810060 -65.803300 -11.754300 -0.000006 -0.000006 -0.007134 -0.080807 -19.862800
